<svg width="187" height="187" viewBox="0 0 187 187" fill="none" xmlns="http://www.w3.org/2000/svg">
<rect width="187" height="187" rx="24.129" fill="url(#paint0_linear_278_41)"/>
<path d="M88.946 109.866C88.946 108.868 89.2891 107.9 89.9176 107.125L107.161 85.8563C108.852 83.7703 112.226 84.9031 112.315 87.587L113.29 116.827C113.368 119.166 115.283 121.025 117.624 121.034L154.465 121.174C155.349 121.177 155.86 122.178 155.345 122.896L148.442 132.515L145.762 136.251C142.341 141.018 136.825 143.835 130.958 143.813L113.344 143.747L95.1123 143.747C91.7068 143.747 88.946 140.986 88.946 137.58L88.946 109.866Z" fill="white"/>
<path d="M107.16 85.8568C108.852 83.7709 112.225 84.903 112.315 87.5866L113.29 116.827C113.366 119.094 115.165 120.909 117.406 121.028L117.624 121.034L154.465 121.173C155.349 121.177 155.86 122.178 155.345 122.896L145.761 136.251C142.447 140.869 137.168 143.657 131.507 143.807L130.958 143.813L130.966 141.803C136.182 141.822 141.087 139.317 144.128 135.079L152.669 123.177L117.616 123.045C114.194 123.032 111.395 120.314 111.28 116.894L110.305 87.6536C110.277 86.8299 109.242 86.4821 108.723 87.1224L91.4799 108.391C91.1417 108.808 90.9569 109.329 90.9569 109.866L90.9569 137.581C90.9571 139.875 92.8172 141.735 95.112 141.736L95.1122 143.746C91.8133 143.746 89.1191 141.156 88.9538 137.898L88.9462 137.581L88.9461 109.866C88.9461 108.93 89.2476 108.021 89.8032 107.272L89.9177 107.124L107.16 85.8568ZM130.966 141.803L130.958 143.813L113.344 143.747L95.1122 143.746L95.112 141.736L113.343 141.736L130.966 141.803Z" fill="white"/>
<path d="M32.5107 60.2742C32.5107 48.2546 42.2545 38.5109 54.2741 38.5109H126.822C128.464 38.5109 129.515 40.2603 128.743 41.7099L122.143 54.1067C118.993 60.0232 112.837 63.7201 106.134 63.7201H62.254C60.6514 63.7201 59.3522 65.0193 59.3522 66.6219V77.0291C59.3522 78.6043 60.6089 79.8918 62.1835 79.93L101.186 80.8775C102.392 80.9068 103.038 82.3104 102.275 83.2453L85.9768 103.214C84.7368 104.733 82.8796 105.615 80.9186 105.615H63.2814C61.7027 105.615 60.4137 106.877 60.3802 108.455L60.106 121.399C59.7879 136.412 47.5268 148.416 32.5107 148.416V60.2742Z" fill="white"/>
<path d="M59.3525 77.0293V66.6221C59.3525 65.0195 60.6513 63.72 62.2538 63.7198H106.134C112.627 63.7198 118.608 60.2506 121.839 54.6548L122.143 54.1069L128.743 41.7096C129.514 40.26 128.464 38.5108 126.822 38.5108V36.5001C129.981 36.5001 132.002 39.8661 130.517 42.655L123.919 55.0514C120.419 61.6239 113.58 65.7306 106.134 65.7306H62.2538C61.7618 65.7307 61.3633 66.1301 61.3633 66.6221V77.0293C61.3634 77.5128 61.7488 77.908 62.2322 77.9198L101.235 78.8672C104.113 78.9372 105.653 82.2859 103.833 84.5166L87.5345 104.486C85.9127 106.473 83.4837 107.625 80.919 107.626H63.2817C62.797 107.626 62.4006 108.013 62.3903 108.497L62.1163 121.442C61.7751 137.548 48.6207 150.427 32.5108 150.427H30.5V60.2737C30.5003 47.1438 41.1447 36.5001 54.2746 36.5001V38.5108L53.712 38.5177C41.9524 38.8158 32.511 48.4423 32.5108 60.2737V148.416C47.2922 148.416 59.4038 136.784 60.082 122.1L60.1056 121.399L60.3805 108.455C60.4118 106.975 61.5466 105.774 62.9892 105.63L63.2817 105.615H80.919L81.2853 105.604C82.9878 105.508 84.5861 104.75 85.7368 103.491L85.9764 103.214L102.274 83.2452C103.038 82.3102 102.392 80.9063 101.186 80.877L62.1831 79.9296C60.7071 79.8935 59.5101 78.7602 59.3663 77.3209L59.3525 77.0293ZM126.822 36.5001V38.5108H54.2746V36.5001H126.822Z" fill="white"/>
<defs>
<linearGradient id="paint0_linear_278_41" x1="-43.2312" y1="-62.836" x2="110.591" y2="152.817" gradientUnits="userSpaceOnUse">
<stop stop-color="#2F54EB"/>
<stop offset="1" stop-color="#14B8A6"/>
</linearGradient>
</defs>
</svg>
